<svg xmlns="http://www.w3.org/2000/svg" viewBox="0 0 841.9 595.3" width="512" height="512"><g fill="#61DAFB"><path d="M666.3 296.5c0 42.9-47.6 78-119 93.2 16.5 42.8 25.2 83.5 25.2 118.8 0 43.8-11.3 79.9-31.6 103.9-14.6 17.6-33.5 28.5-54.5 31.7-12 1.9-24.8 2.2-37.9.9-25.6-2.5-52.4-10.4-79.6-23.6-27.2 13.2-54 21.1-79.6 23.6-13.1 1.3-25.9 1-37.9-.9-21-3.2-39.9-14.1-54.5-31.7C191.7 588.4 180.4 552.3 180.4 508.5c0-35.3 8.7-76 25.2-118.8-71.4-15.2-119-50.3-119-93.2 0-42.9 47.6-78 119-93.2-16.5-42.8-25.2-83.5-25.2-118.8 0-43.8 11.3-79.9 31.6-103.9 14.6-17.6 33.5-28.5 54.5-31.7 12-1.9 24.8-2.2 37.9-.9 25.6 2.5 52.4 10.4 79.6 23.6 27.2-13.2 54-21.1 79.6-23.6 13.1-1.3 25.9-1 37.9.9 21 3.2 39.9 14.1 54.5 31.7 20.3 24 31.6 60.1 31.6 103.9 0 35.3-8.7 76-25.2 118.8 71.4 15.2 119 50.3 119 93.2z"/><circle cx="420.9" cy="296.5" r="45.7"/><path d="M520.5 78.1c-9.9 22.7-24.2 48.4-42.6 75.8s-37.3 51.3-55.3 69c-21.7-19.5-46.3-36.1-72.7-48.7-26.4-12.6-54.1-21.2-81.9-24.6 9.9-22.7 24.2-48.4 42.6-75.8 18.4-27.4 37.3-51.3 55.3-69 21.7 19.5 46.3 36.1 72.7 48.7 26.4 12.6 54.1 21.2 81.9 24.6zm182.9 115.5c-22.7 9.9-48.4 24.2-75.8 42.6-27.4 18.4-51.3 37.3-69 55.3-19.5-21.7-36.1-46.3-48.7-72.7-12.6-26.4-21.2-54.1-24.6-81.9 22.7-9.9 48.4-24.2 75.8-42.6 27.4-18.4 51.3-37.3 69-55.3 19.5 21.7 36.1 46.3 48.7 72.7 12.6 26.4 21.2 54.1 24.6 81.9zM394.6 733.4c22.7-9.9 48.4-24.2 75.8-42.6 27.4-18.4 51.3-37.3 69-55.3 19.5 21.7 36.1 46.3 48.7 72.7 12.6 26.4 21.2 54.1 24.6 81.9-22.7 9.9-48.4 24.2-75.8 42.6-27.4 18.4-51.3 37.3-69 55.3-19.5-21.7-36.1-46.3-48.7-72.7-12.6-26.4-21.2-54.1-24.6-81.9zM17.5 392c22.7-9.9 48.4-24.2 75.8-42.6 27.4-18.4 51.3-37.3 69-55.3 19.5 21.7 36.1 46.3 48.7 72.7 12.6 26.4 21.2 54.1 24.6 81.9-22.7 9.9-48.4 24.2-75.8 42.6-27.4 18.4-51.3 37.3-69 55.3-19.5-21.7-36.1-46.3-48.7-72.7-12.6-26.4-21.2-54.1-24.6-81.9z"/></g></svg> 